# xmcd
#
# Track frame offsets:
#	150
#	19309
#	35757
#	54965
#
# Disc length: 947
#
# Revision: 1
# Processed by: cddbd v1.5.1PL0 Copyright (c) Steve Scherf et al.
# Submitted via: CDex 1.50beta9
# Normalized: r0:TRMNUM
#
DISCID=2d03b104
DTITLE=Poppins - HAPPY COSMOS
DYEAR=2004
DGENRE=Vocal
TTITLE0=HAPPY COSMOS
TTITLE1=地球にぴんぽ〜ん
TTITLE2=HAPPY COSMOS(OFFVOCAL)
TTITLE3=地球にぴんぽ〜ん(OFFVOCAL)
EXTD=YEAR: 2004
EXTT0=
EXTT1=
EXTT2=
EXTT3=
PLAYORDER=
